{"glyphs":{"0":{"ha":868,"x_min":0,"x_max":781,"o":"m 434 347 l 434 738 l 347 738 l 347 347 l 434 347 m 174 0 l 0 174 l 0 911 l 174 1085 l 608 1085 l 781 911 l 781 174 l 608 0 l 174 0 z "},"1":{"ha":434,"x_min":-174,"x_max":347,"o":"m 0 0 l 0 868 l -174 868 l -174 1085 l 347 1085 l 347 0 l 0 0 z "},"2":{"ha":868,"x_min":0,"x_max":781,"o":"m 0 0 l 0 499 l 174 673 l 434 673 l 434 738 l 0 738 l 0 1085 l 608 1085 l 781 911 l 781 586 l 608 412 l 347 412 l 347 347 l 781 347 l 781 0 l 0 0 z "},"3":{"ha":868,"x_min":0,"x_max":781,"o":"m 0 0 l 0 347 l 434 347 l 434 412 l 0 412 l 0 673 l 434 673 l 434 738 l 0 738 l 0 1085 l 608 1085 l 781 911 l 781 651 l 662 532 l 781 412 l 781 174 l 608 0 l 0 0 z "},"4":{"ha":868,"x_min":0,"x_max":781,"o":"m 434 0 l 434 412 l 0 412 l 0 1085 l 347 1085 l 347 673 l 434 673 l 434 1085 l 781 1085 l 781 0 l 434 0 z "},"5":{"ha":868,"x_min":0,"x_max":781,"o":"m 0 0 l 0 347 l 434 347 l 434 412 l 174 412 l 0 586 l 0 1085 l 781 1085 l 781 738 l 347 738 l 347 673 l 781 673 l 781 174 l 608 0 l 0 0 z "},"6":{"ha":868,"x_min":0,"x_max":781,"o":"m 434 304 l 434 456 l 347 456 l 347 304 l 434 304 m 174 0 l 0 174 l 0 911 l 174 1085 l 781 1085 l 781 738 l 347 738 l 347 673 l 608 673 l 781 499 l 781 174 l 608 0 l 174 0 z "},"7":{"ha":955,"x_min":0,"x_max":868,"o":"m 260 0 l 260 499 l 434 673 l 521 673 l 521 738 l 0 738 l 0 1085 l 868 1085 l 868 586 l 694 412 l 608 412 l 608 0 l 260 0 z "},"8":{"ha":868,"x_min":0,"x_max":781,"o":"m 434 347 l 434 412 l 347 412 l 347 347 l 434 347 m 434 673 l 434 738 l 347 738 l 347 673 l 434 673 m 174 0 l 0 174 l 0 412 l 119 532 l 0 651 l 0 911 l 174 1085 l 608 1085 l 781 911 l 781 651 l 662 532 l 781 412 l 781 174 l 608 0 l 174 0 z "},"9":{"ha":868,"x_min":0,"x_max":781,"o":"m 434 651 l 434 803 l 347 803 l 347 651 l 434 651 m 0 0 l 0 347 l 434 347 l 434 412 l 174 412 l 0 586 l 0 911 l 174 1085 l 608 1085 l 781 911 l 781 174 l 608 0 l 0 0 z "}," ":{"ha":347,"x_min":0,"x_max":0,"o":""},"!":{"ha":434,"x_min":0,"x_max":347,"o":"m 0 0 l 0 347 l 347 347 l 347 0 l 0 0 m 0 412 l 0 1085 l 347 1085 l 347 412 l 0 412 z "},",":{"ha":304,"x_min":0,"x_max":217,"o":"m 87 -130 l 87 0 l 0 0 l 0 217 l 217 217 l 217 0 l 87 -130 l 87 -130 z "},"-":{"ha":304,"x_min":0,"x_max":217,"o":"m 0 434 l 0 651 l 217 651 l 217 434 l 0 434 z "},".":{"ha":304,"x_min":0,"x_max":217,"o":"m 0 0 l 0 217 l 217 217 l 217 0 l 0 0 z "},":":{"ha":304,"x_min":0,"x_max":217,"o":"m 0 0 l 0 217 l 217 217 l 217 0 l 0 0 m 0 434 l 0 651 l 217 651 l 217 434 l 0 434 z "},";":{"ha":304,"x_min":0,"x_max":217,"o":"m 87 -130 l 87 0 l 0 0 l 0 217 l 217 217 l 217 0 l 87 -130 l 87 -130 m 0 434 l 0 651 l 217 651 l 217 434 l 0 434 z "},"?":{"ha":868,"x_min":0,"x_max":781,"o":"m 0 0 l 0 347 l 347 347 l 347 0 l 0 0 m 0 412 l 0 499 l 174 673 l 434 673 l 434 738 l 0 738 l 0 1085 l 608 1085 l 781 911 l 781 586 l 608 412 l 0 412 z "},"@":{"ha":1215,"x_min":0,"x_max":1085,"o":"m 174 0 l 0 174 l 0 911 l 174 1085 l 911 1085 l 1085 911 l 1085 391 l 391 391 l 391 694 l 694 694 l 694 564 l 738 564 l 738 738 l 347 738 l 347 347 l 1085 347 l 1085 0 l 174 0 z "},"A":{"ha":868,"x_min":0,"x_max":781,"o":"m 434 304 l 434 477 l 347 477 l 347 304 l 434 304 m 174 0 l 0 174 l 0 608 l 174 781 l 781 781 l 781 0 l 174 0 z "},"B":{"ha":868,"x_min":0,"x_max":781,"o":"m 434 304 l 434 477 l 347 477 l 347 304 l 434 304 m 0 0 l 0 1085 l 347 1085 l 347 781 l 608 781 l 781 608 l 781 174 l 608 0 l 0 0 z "},"C":{"ha":781,"x_min":0,"x_max":694,"o":"m 174 0 l 0 174 l 0 608 l 174 781 l 694 781 l 694 434 l 347 434 l 347 347 l 694 347 l 694 0 l 174 0 z "},"D":{"ha":868,"x_min":0,"x_max":781,"o":"m 434 304 l 434 477 l 347 477 l 347 304 l 434 304 m 174 0 l 0 174 l 0 608 l 174 781 l 434 781 l 434 1085 l 781 1085 l 781 0 l 174 0 z "},"E":{"ha":868,"x_min":0,"x_max":781,"o":"m 434 477 l 434 521 l 347 521 l 347 477 l 434 477 m 174 0 l 0 174 l 0 608 l 174 781 l 608 781 l 781 608 l 781 304 l 347 304 l 347 260 l 781 260 l 781 0 l 174 0 z "},"F":{"ha":651,"x_min":0,"x_max":564,"o":"m 0 0 l 0 911 l 174 1085 l 564 1085 l 564 868 l 347 868 l 347 781 l 564 781 l 564 434 l 347 434 l 347 0 l 0 0 z "},"G":{"ha":868,"x_min":0,"x_max":781,"o":"m 434 304 l 434 477 l 347 477 l 347 304 l 434 304 m 0 -304 l 0 -87 l 434 -87 l 434 0 l 174 0 l 0 174 l 0 608 l 174 781 l 781 781 l 781 -130 l 608 -304 l 0 -304 z "},"H":{"ha":868,"x_min":0,"x_max":781,"o":"m 0 0 l 0 1085 l 347 1085 l 347 781 l 608 781 l 781 608 l 781 0 l 434 0 l 434 434 l 347 434 l 347 0 l 0 0 z "},"I":{"ha":434,"x_min":0,"x_max":347,"o":"m 0 0 l 0 781 l 347 781 l 347 0 l 0 0 m 0 868 l 0 1085 l 347 1085 l 347 868 l 0 868 z "},"J":{"ha":434,"x_min":0,"x_max":347,"o":"m 0 -304 l 0 781 l 347 781 l 347 -130 l 174 -304 l 0 -304 m 0 868 l 0 1085 l 347 1085 l 347 868 l 0 868 z "},"K":{"ha":868,"x_min":0,"x_max":781,"o":"m 0 0 l 0 1085 l 347 1085 l 347 521 l 434 521 l 434 781 l 781 781 l 781 564 l 608 391 l 781 217 l 781 0 l 434 0 l 434 260 l 347 260 l 347 0 l 0 0 z "},"L":{"ha":434,"x_min":0,"x_max":347,"o":"m 0 0 l 0 1085 l 347 1085 l 347 0 l 0 0 z "},"M":{"ha":1302,"x_min":0,"x_max":1215,"o":"m 0 0 l 0 781 l 1042 781 l 1215 608 l 1215 0 l 868 0 l 868 434 l 781 434 l 781 0 l 434 0 l 434 434 l 347 434 l 347 0 l 0 0 z "},"N":{"ha":868,"x_min":0,"x_max":781,"o":"m 0 0 l 0 781 l 608 781 l 781 608 l 781 0 l 434 0 l 434 434 l 347 434 l 347 0 l 0 0 z "},"O":{"ha":868,"x_min":0,"x_max":781,"o":"m 434 304 l 434 477 l 347 477 l 347 304 l 434 304 m 174 0 l 0 174 l 0 608 l 174 781 l 608 781 l 781 608 l 781 174 l 608 0 l 174 0 z "},"P":{"ha":868,"x_min":0,"x_max":781,"o":"m 434 304 l 434 477 l 347 477 l 347 304 l 434 304 m 0 -304 l 0 781 l 608 781 l 781 608 l 781 174 l 608 0 l 347 0 l 347 -304 l 0 -304 z "},"Q":{"ha":868,"x_min":0,"x_max":781,"o":"m 434 304 l 434 477 l 347 477 l 347 304 l 434 304 m 434 -304 l 434 0 l 174 0 l 0 174 l 0 608 l 174 781 l 781 781 l 781 -304 l 434 -304 z "},"R":{"ha":781,"x_min":0,"x_max":694,"o":"m 0 0 l 0 608 l 174 781 l 694 781 l 694 434 l 347 434 l 347 0 l 0 0 z "},"S":{"ha":868,"x_min":0,"x_max":781,"o":"m 0 0 l 0 260 l 434 260 l 434 304 l 0 304 l 0 608 l 174 781 l 781 781 l 781 521 l 347 521 l 347 477 l 781 477 l 781 174 l 608 0 l 0 0 z "},"T":{"ha":738,"x_min":0,"x_max":651,"o":"m 174 0 l 0 174 l 0 1085 l 347 1085 l 347 781 l 651 781 l 651 434 l 347 434 l 347 347 l 651 347 l 651 0 l 174 0 z "},"U":{"ha":868,"x_min":0,"x_max":781,"o":"m 174 0 l 0 174 l 0 781 l 347 781 l 347 347 l 434 347 l 434 781 l 781 781 l 781 174 l 608 0 l 174 0 z "},"V":{"ha":868,"x_min":0,"x_max":781,"o":"m 347 0 l 0 347 l 0 781 l 347 781 l 347 347 l 434 347 l 434 781 l 781 781 l 781 347 l 434 0 l 347 0 z "},"W":{"ha":1302,"x_min":0,"x_max":1215,"o":"m 174 0 l 0 174 l 0 781 l 347 781 l 347 347 l 434 347 l 434 781 l 781 781 l 781 347 l 868 347 l 868 781 l 1215 781 l 1215 0 l 174 0 z "},"X":{"ha":868,"x_min":0,"x_max":781,"o":"m 0 0 l 0 217 l 174 391 l 0 564 l 0 781 l 347 781 l 347 564 l 434 564 l 434 781 l 781 781 l 781 564 l 608 391 l 781 217 l 781 0 l 434 0 l 434 217 l 347 217 l 347 0 l 0 0 z "},"Y":{"ha":868,"x_min":0,"x_max":781,"o":"m 0 -304 l 0 -87 l 434 -87 l 434 0 l 174 0 l 0 174 l 0 781 l 347 781 l 347 347 l 434 347 l 434 781 l 781 781 l 781 -130 l 608 -304 l 0 -304 z "},"Z":{"ha":868,"x_min":0,"x_max":781,"o":"m 0 0 l 0 304 l 174 477 l 434 477 l 434 521 l 0 521 l 0 781 l 781 781 l 781 477 l 608 304 l 347 304 l 347 260 l 781 260 l 781 0 l 0 0 z "},"a":{"ha":868,"x_min":0,"x_max":781,"o":"m 434 304 l 434 477 l 347 477 l 347 304 l 434 304 m 174 0 l 0 174 l 0 608 l 174 781 l 781 781 l 781 0 l 174 0 z "},"b":{"ha":868,"x_min":0,"x_max":781,"o":"m 434 304 l 434 477 l 347 477 l 347 304 l 434 304 m 0 0 l 0 1085 l 347 1085 l 347 781 l 608 781 l 781 608 l 781 174 l 608 0 l 0 0 z "},"c":{"ha":781,"x_min":0,"x_max":694,"o":"m 174 0 l 0 174 l 0 608 l 174 781 l 694 781 l 694 434 l 347 434 l 347 347 l 694 347 l 694 0 l 174 0 z "},"d":{"ha":868,"x_min":0,"x_max":781,"o":"m 434 304 l 434 477 l 347 477 l 347 304 l 434 304 m 174 0 l 0 174 l 0 608 l 174 781 l 434 781 l 434 1085 l 781 1085 l 781 0 l 174 0 z "},"e":{"ha":868,"x_min":0,"x_max":781,"o":"m 434 477 l 434 521 l 347 521 l 347 477 l 434 477 m 174 0 l 0 174 l 0 608 l 174 781 l 608 781 l 781 608 l 781 304 l 347 304 l 347 260 l 781 260 l 781 0 l 174 0 z "},"f":{"ha":651,"x_min":0,"x_max":564,"o":"m 0 0 l 0 911 l 174 1085 l 564 1085 l 564 868 l 347 868 l 347 781 l 564 781 l 564 434 l 347 434 l 347 0 l 0 0 z "},"g":{"ha":868,"x_min":0,"x_max":781,"o":"m 434 304 l 434 477 l 347 477 l 347 304 l 434 304 m 0 -304 l 0 -87 l 434 -87 l 434 0 l 174 0 l 0 174 l 0 608 l 174 781 l 781 781 l 781 -130 l 608 -304 l 0 -304 z "},"h":{"ha":868,"x_min":0,"x_max":781,"o":"m 0 0 l 0 1085 l 347 1085 l 347 781 l 608 781 l 781 608 l 781 0 l 434 0 l 434 434 l 347 434 l 347 0 l 0 0 z "},"i":{"ha":434,"x_min":0,"x_max":347,"o":"m 0 0 l 0 781 l 347 781 l 347 0 l 0 0 m 0 868 l 0 1085 l 347 1085 l 347 868 l 0 868 z "},"j":{"ha":434,"x_min":0,"x_max":347,"o":"m 0 -304 l 0 781 l 347 781 l 347 -130 l 174 -304 l 0 -304 m 0 868 l 0 1085 l 347 1085 l 347 868 l 0 868 z "},"k":{"ha":868,"x_min":0,"x_max":781,"o":"m 0 0 l 0 1085 l 347 1085 l 347 521 l 434 521 l 434 781 l 781 781 l 781 564 l 608 391 l 781 217 l 781 0 l 434 0 l 434 260 l 347 260 l 347 0 l 0 0 z "},"l":{"ha":434,"x_min":0,"x_max":347,"o":"m 0 0 l 0 1085 l 347 1085 l 347 0 l 0 0 z "},"m":{"ha":1302,"x_min":0,"x_max":1215,"o":"m 0 0 l 0 781 l 1042 781 l 1215 608 l 1215 0 l 868 0 l 868 434 l 781 434 l 781 0 l 434 0 l 434 434 l 347 434 l 347 0 l 0 0 z "},"n":{"ha":868,"x_min":0,"x_max":781,"o":"m 0 0 l 0 781 l 608 781 l 781 608 l 781 0 l 434 0 l 434 434 l 347 434 l 347 0 l 0 0 z "},"o":{"ha":868,"x_min":0,"x_max":781,"o":"m 434 304 l 434 477 l 347 477 l 347 304 l 434 304 m 174 0 l 0 174 l 0 608 l 174 781 l 608 781 l 781 608 l 781 174 l 608 0 l 174 0 z "},"p":{"ha":868,"x_min":0,"x_max":781,"o":"m 434 304 l 434 477 l 347 477 l 347 304 l 434 304 m 0 -304 l 0 781 l 608 781 l 781 608 l 781 174 l 608 0 l 347 0 l 347 -304 l 0 -304 z "},"q":{"ha":868,"x_min":0,"x_max":781,"o":"m 434 304 l 434 477 l 347 477 l 347 304 l 434 304 m 434 -304 l 434 0 l 174 0 l 0 174 l 0 608 l 174 781 l 781 781 l 781 -304 l 434 -304 z "},"r":{"ha":781,"x_min":0,"x_max":694,"o":"m 0 0 l 0 608 l 174 781 l 694 781 l 694 434 l 347 434 l 347 0 l 0 0 z "},"s":{"ha":868,"x_min":0,"x_max":781,"o":"m 0 0 l 0 260 l 434 260 l 434 304 l 0 304 l 0 608 l 174 781 l 781 781 l 781 521 l 347 521 l 347 477 l 781 477 l 781 174 l 608 0 l 0 0 z "},"t":{"ha":738,"x_min":0,"x_max":651,"o":"m 174 0 l 0 174 l 0 1085 l 347 1085 l 347 781 l 651 781 l 651 434 l 347 434 l 347 347 l 651 347 l 651 0 l 174 0 z "},"u":{"ha":868,"x_min":0,"x_max":781,"o":"m 174 0 l 0 174 l 0 781 l 347 781 l 347 347 l 434 347 l 434 781 l 781 781 l 781 174 l 608 0 l 174 0 z "},"v":{"ha":868,"x_min":0,"x_max":781,"o":"m 347 0 l 0 347 l 0 781 l 347 781 l 347 347 l 434 347 l 434 781 l 781 781 l 781 347 l 434 0 l 347 0 z "},"w":{"ha":1302,"x_min":0,"x_max":1215,"o":"m 174 0 l 0 174 l 0 781 l 347 781 l 347 347 l 434 347 l 434 781 l 781 781 l 781 347 l 868 347 l 868 781 l 1215 781 l 1215 0 l 174 0 z "},"x":{"ha":868,"x_min":0,"x_max":781,"o":"m 0 0 l 0 217 l 174 391 l 0 564 l 0 781 l 347 781 l 347 564 l 434 564 l 434 781 l 781 781 l 781 564 l 608 391 l 781 217 l 781 0 l 434 0 l 434 217 l 347 217 l 347 0 l 0 0 z "},"y":{"ha":868,"x_min":0,"x_max":781,"o":"m 0 -304 l 0 -87 l 434 -87 l 434 0 l 174 0 l 0 174 l 0 781 l 347 781 l 347 347 l 434 347 l 434 781 l 781 781 l 781 -130 l 608 -304 l 0 -304 z "},"z":{"ha":868,"x_min":0,"x_max":781,"o":"m 0 0 l 0 304 l 174 477 l 434 477 l 434 521 l 0 521 l 0 781 l 781 781 l 781 477 l 608 304 l 347 304 l 347 260 l 781 260 l 781 0 l 0 0 z "}}}
